<?xml version="1.0" encoding="UTF-8" standalone="no"?>
<!DOCTYPE svg PUBLIC "-//W3C//DTD SVG 1.1//EN"
 "http://www.w3.org/Graphics/SVG/1.1/DTD/svg11.dtd">
<!-- Generated by graphviz version 2.47.0 (20210316.0004)
 -->
<!-- Title: dependencies Pages: 1 -->
<svg width="507pt" height="284pt"
 viewBox="0.00 0.00 507.00 284.00" xmlns="http://www.w3.org/2000/svg" xmlns:xlink="http://www.w3.org/1999/xlink">
<g id="graph0" class="graph" transform="scale(1 1) rotate(0) translate(4 280)">
<title>dependencies</title>
<polygon fill="white" stroke="transparent" points="-4,4 -4,-280 503,-280 503,4 -4,4"/>
<text text-anchor="start" x="228.51" y="-42.4" font-family="Times-12" font-weight="bold" font-size="14.00">Legend</text>
<polygon fill="#ffffb3" stroke="transparent" points="15.5,-10 15.5,-30 35.5,-30 35.5,-10 15.5,-10"/>
<text text-anchor="start" x="39.13" y="-15.4" font-family="Times-12" font-size="14.00"> &#160;Declarations</text>
<polygon fill="#8dd3c7" stroke="transparent" points="128.5,-10 128.5,-30 148.5,-30 148.5,-10 128.5,-10"/>
<text text-anchor="start" x="152.23" y="-15.4" font-family="Times-12" font-size="14.00"> &#160;Module</text>
<polygon fill="#80b1d3" stroke="transparent" points="214.5,-10 214.5,-30 234.5,-30 234.5,-10 214.5,-10"/>
<text text-anchor="start" x="238.28" y="-15.4" font-family="Times-12" font-size="14.00"> &#160;Bootstrap</text>
<polygon fill="#fdb462" stroke="transparent" points="311.5,-10 311.5,-30 331.5,-30 331.5,-10 311.5,-10"/>
<text text-anchor="start" x="335.17" y="-15.4" font-family="Times-12" font-size="14.00"> &#160;Providers</text>
<polygon fill="#fb8072" stroke="transparent" points="407.5,-10 407.5,-30 427.5,-30 427.5,-10 407.5,-10"/>
<text text-anchor="start" x="431.23" y="-15.4" font-family="Times-12" font-size="14.00"> &#160;Exports</text>
<g id="clust1" class="cluster">
<title>cluster_SharedModule</title>
<polygon fill="none" stroke="black" stroke-dasharray="1,5" points="8,-70 8,-268 491,-268 491,-70 8,-70"/>
</g>
<g id="clust2" class="cluster">
<title>cluster_SharedModule_declarations</title>
<polygon fill="none" stroke="black" points="20,-78 20,-130 478,-130 478,-78 20,-78"/>
</g>
<g id="clust7" class="cluster">
<title>cluster_SharedModule_exports</title>
<polygon fill="none" stroke="black" points="16,-208 16,-260 483,-260 483,-208 16,-208"/>
</g>
<!-- FooterComponent -->
<g id="node1" class="node">
<title>FooterComponent</title>
<polygon fill="#ffffb3" stroke="black" points="469.88,-122 352.12,-122 352.12,-86 469.88,-86 469.88,-122"/>
<text text-anchor="middle" x="411" y="-99.8" font-family="Times,serif" font-size="14.00">FooterComponent</text>
</g>
<!-- SharedModule -->
<g id="node4" class="node">
<title>SharedModule</title>
<polygon fill="#8dd3c7" stroke="black" points="322.42,-187 319.42,-191 298.42,-191 295.42,-187 223.58,-187 223.58,-151 322.42,-151 322.42,-187"/>
<text text-anchor="middle" x="273" y="-164.8" font-family="Times,serif" font-size="14.00">SharedModule</text>
</g>
<!-- FooterComponent&#45;&gt;SharedModule -->
<g id="edge1" class="edge">
<title>FooterComponent&#45;&gt;SharedModule</title>
<path fill="none" stroke="black" d="M431.06,-122.02C431.06,-139.37 431.06,-163 431.06,-163 431.06,-163 332.58,-163 332.58,-163"/>
<polygon fill="black" stroke="black" points="332.58,-159.5 322.58,-163 332.58,-166.5 332.58,-159.5"/>
</g>
<!-- HeaderComponent -->
<g id="node2" class="node">
<title>HeaderComponent</title>
<polygon fill="#ffffb3" stroke="black" points="333.74,-122 212.26,-122 212.26,-86 333.74,-86 333.74,-122"/>
<text text-anchor="middle" x="273" y="-99.8" font-family="Times,serif" font-size="14.00">HeaderComponent</text>
</g>
<!-- HeaderComponent&#45;&gt;SharedModule -->
<g id="edge2" class="edge">
<title>HeaderComponent&#45;&gt;SharedModule</title>
<path fill="none" stroke="black" d="M273,-122.11C273,-122.11 273,-140.99 273,-140.99"/>
<polygon fill="black" stroke="black" points="269.5,-140.99 273,-150.99 276.5,-140.99 269.5,-140.99"/>
</g>
<!-- NotAuthorizedComponent -->
<g id="node3" class="node">
<title>NotAuthorizedComponent</title>
<polygon fill="#ffffb3" stroke="black" points="193.81,-122 28.19,-122 28.19,-86 193.81,-86 193.81,-122"/>
<text text-anchor="middle" x="111" y="-99.8" font-family="Times,serif" font-size="14.00">NotAuthorizedComponent</text>
</g>
<!-- NotAuthorizedComponent&#45;&gt;SharedModule -->
<g id="edge3" class="edge">
<title>NotAuthorizedComponent&#45;&gt;SharedModule</title>
<path fill="none" stroke="black" d="M137.72,-122.02C137.72,-139.37 137.72,-163 137.72,-163 137.72,-163 213.78,-163 213.78,-163"/>
<polygon fill="black" stroke="black" points="213.78,-166.5 223.78,-163 213.78,-159.5 213.78,-166.5"/>
</g>
<!-- FooterComponent  -->
<g id="node5" class="node">
<title>FooterComponent </title>
<polygon fill="#fb8072" stroke="black" points="474.88,-252 353.12,-252 353.12,-216 474.88,-216 474.88,-252"/>
<text text-anchor="middle" x="414" y="-229.8" font-family="Times,serif" font-size="14.00">FooterComponent </text>
</g>
<!-- SharedModule&#45;&gt;FooterComponent  -->
<g id="edge4" class="edge">
<title>SharedModule&#45;&gt;FooterComponent </title>
<path fill="none" stroke="black" stroke-dasharray="5,2" d="M322.51,-175C355.26,-175 392.19,-175 392.19,-175 392.19,-175 392.19,-205.98 392.19,-205.98"/>
<polygon fill="black" stroke="black" points="388.69,-205.98 392.19,-215.98 395.69,-205.98 388.69,-205.98"/>
</g>
<!-- HeaderComponent  -->
<g id="node6" class="node">
<title>HeaderComponent </title>
<polygon fill="#fb8072" stroke="black" points="335.74,-252 210.26,-252 210.26,-216 335.74,-216 335.74,-252"/>
<text text-anchor="middle" x="273" y="-229.8" font-family="Times,serif" font-size="14.00">HeaderComponent </text>
</g>
<!-- SharedModule&#45;&gt;HeaderComponent  -->
<g id="edge5" class="edge">
<title>SharedModule&#45;&gt;HeaderComponent </title>
<path fill="none" stroke="black" stroke-dasharray="5,2" d="M273,-187.11C273,-187.11 273,-205.99 273,-205.99"/>
<polygon fill="black" stroke="black" points="269.5,-205.99 273,-215.99 276.5,-205.99 269.5,-205.99"/>
</g>
<!-- NotAuthorizedComponent  -->
<g id="node7" class="node">
<title>NotAuthorizedComponent </title>
<polygon fill="#fb8072" stroke="black" points="192.31,-252 23.69,-252 23.69,-216 192.31,-216 192.31,-252"/>
<text text-anchor="middle" x="108" y="-229.8" font-family="Times,serif" font-size="14.00">NotAuthorizedComponent </text>
</g>
<!-- SharedModule&#45;&gt;NotAuthorizedComponent  -->
<g id="edge6" class="edge">
<title>SharedModule&#45;&gt;NotAuthorizedComponent </title>
<path fill="none" stroke="black" stroke-dasharray="5,2" d="M223.58,-175C167.3,-175 83.03,-175 83.03,-175 83.03,-175 83.03,-205.98 83.03,-205.98"/>
<polygon fill="black" stroke="black" points="79.53,-205.98 83.03,-215.98 86.53,-205.98 79.53,-205.98"/>
</g>
</g>
</svg>
