<?xml version="1.0" encoding="UTF-8" standalone="no"?>
<!DOCTYPE svg PUBLIC "-//W3C//DTD SVG 1.1//EN"
 "http://www.w3.org/Graphics/SVG/1.1/DTD/svg11.dtd">
<!-- Generated by graphviz version 2.47.0 (20210316.0004)
 -->
<!-- Title: dependencies Pages: 1 -->
<svg width="504pt" height="211pt"
 viewBox="0.00 0.00 504.00 211.00" xmlns="http://www.w3.org/2000/svg" xmlns:xlink="http://www.w3.org/1999/xlink">
<g id="graph0" class="graph" transform="scale(1 1) rotate(0) translate(4 207)">
<title>dependencies</title>
<polygon fill="white" stroke="transparent" points="-4,4 -4,-207 500,-207 500,4 -4,4"/>
<text text-anchor="start" x="227.01" y="-42.4" font-family="Times-12" font-weight="bold" font-size="14.00">Legend</text>
<polygon fill="#ffffb3" stroke="transparent" points="14,-10 14,-30 34,-30 34,-10 14,-10"/>
<text text-anchor="start" x="37.63" y="-15.4" font-family="Times-12" font-size="14.00"> &#160;Declarations</text>
<polygon fill="#8dd3c7" stroke="transparent" points="127,-10 127,-30 147,-30 147,-10 127,-10"/>
<text text-anchor="start" x="150.73" y="-15.4" font-family="Times-12" font-size="14.00"> &#160;Module</text>
<polygon fill="#80b1d3" stroke="transparent" points="213,-10 213,-30 233,-30 233,-10 213,-10"/>
<text text-anchor="start" x="236.78" y="-15.4" font-family="Times-12" font-size="14.00"> &#160;Bootstrap</text>
<polygon fill="#fdb462" stroke="transparent" points="310,-10 310,-30 330,-30 330,-10 310,-10"/>
<text text-anchor="start" x="333.67" y="-15.4" font-family="Times-12" font-size="14.00"> &#160;Providers</text>
<polygon fill="#fb8072" stroke="transparent" points="406,-10 406,-30 426,-30 426,-10 406,-10"/>
<text text-anchor="start" x="429.73" y="-15.4" font-family="Times-12" font-size="14.00"> &#160;Exports</text>
<g id="clust1" class="cluster">
<title>cluster_ContactUsModule</title>
<polygon fill="none" stroke="black" stroke-dasharray="1,5" points="92,-70 92,-195 404,-195 404,-70 92,-70"/>
</g>
<g id="clust3" class="cluster">
<title>cluster_ContactUsModule_imports</title>
<polygon fill="none" stroke="black" points="100,-78 100,-130 396,-130 396,-78 100,-78"/>
</g>
<!-- ContactUsRoutingModule -->
<g id="node1" class="node">
<title>ContactUsRoutingModule</title>
<polygon fill="#8dd3c7" stroke="black" points="387.77,-122 384.77,-126 363.77,-126 360.77,-122 224.23,-122 224.23,-86 387.77,-86 387.77,-122"/>
<text text-anchor="middle" x="306" y="-99.8" font-family="Times,serif" font-size="14.00">ContactUsRoutingModule</text>
</g>
<!-- ContactUsModule -->
<g id="node3" class="node">
<title>ContactUsModule</title>
<polygon fill="#8dd3c7" stroke="black" points="291.15,-187 288.15,-191 267.15,-191 264.15,-187 172.85,-187 172.85,-151 291.15,-151 291.15,-187"/>
<text text-anchor="middle" x="232" y="-164.8" font-family="Times,serif" font-size="14.00">ContactUsModule</text>
</g>
<!-- ContactUsRoutingModule&#45;&gt;ContactUsModule -->
<g id="edge1" class="edge">
<title>ContactUsRoutingModule&#45;&gt;ContactUsModule</title>
<path fill="none" stroke="black" d="M257.72,-122.11C257.72,-122.11 257.72,-140.99 257.72,-140.99"/>
<polygon fill="black" stroke="black" points="254.22,-140.99 257.72,-150.99 261.22,-140.99 254.22,-140.99"/>
</g>
<!-- SharedModule -->
<g id="node2" class="node">
<title>SharedModule</title>
<polygon fill="#8dd3c7" stroke="black" points="206.42,-122 203.42,-126 182.42,-126 179.42,-122 107.58,-122 107.58,-86 206.42,-86 206.42,-122"/>
<text text-anchor="middle" x="157" y="-99.8" font-family="Times,serif" font-size="14.00">SharedModule</text>
</g>
<!-- SharedModule&#45;&gt;ContactUsModule -->
<g id="edge2" class="edge">
<title>SharedModule&#45;&gt;ContactUsModule</title>
<path fill="none" stroke="black" d="M189.44,-122.11C189.44,-122.11 189.44,-140.99 189.44,-140.99"/>
<polygon fill="black" stroke="black" points="185.94,-140.99 189.44,-150.99 192.94,-140.99 185.94,-140.99"/>
</g>
</g>
</svg>
