<?xml version="1.0" encoding="UTF-8" standalone="no"?>
<!DOCTYPE svg PUBLIC "-//W3C//DTD SVG 1.1//EN"
 "http://www.w3.org/Graphics/SVG/1.1/DTD/svg11.dtd">
<!-- Generated by graphviz version 2.47.0 (20210316.0004)
 -->
<!-- Title: dependencies Pages: 1 -->
<svg width="1157pt" height="211pt"
 viewBox="0.00 0.00 1157.00 211.00" xmlns="http://www.w3.org/2000/svg" xmlns:xlink="http://www.w3.org/1999/xlink">
<g id="graph0" class="graph" transform="scale(1 1) rotate(0) translate(4 207)">
<title>dependencies</title>
<polygon fill="white" stroke="transparent" points="-4,4 -4,-207 1153,-207 1153,4 -4,4"/>
<text text-anchor="start" x="553.51" y="-42.4" font-family="Times-12" font-weight="bold" font-size="14.00">Legend</text>
<polygon fill="#ffffb3" stroke="transparent" points="340.5,-10 340.5,-30 360.5,-30 360.5,-10 340.5,-10"/>
<text text-anchor="start" x="364.13" y="-15.4" font-family="Times-12" font-size="14.00"> &#160;Declarations</text>
<polygon fill="#8dd3c7" stroke="transparent" points="453.5,-10 453.5,-30 473.5,-30 473.5,-10 453.5,-10"/>
<text text-anchor="start" x="477.23" y="-15.4" font-family="Times-12" font-size="14.00"> &#160;Module</text>
<polygon fill="#80b1d3" stroke="transparent" points="539.5,-10 539.5,-30 559.5,-30 559.5,-10 539.5,-10"/>
<text text-anchor="start" x="563.28" y="-15.4" font-family="Times-12" font-size="14.00"> &#160;Bootstrap</text>
<polygon fill="#fdb462" stroke="transparent" points="636.5,-10 636.5,-30 656.5,-30 656.5,-10 636.5,-10"/>
<text text-anchor="start" x="660.17" y="-15.4" font-family="Times-12" font-size="14.00"> &#160;Providers</text>
<polygon fill="#fb8072" stroke="transparent" points="732.5,-10 732.5,-30 752.5,-30 752.5,-10 732.5,-10"/>
<text text-anchor="start" x="756.23" y="-15.4" font-family="Times-12" font-size="14.00"> &#160;Exports</text>
<g id="clust1" class="cluster">
<title>cluster_ProductsModule</title>
<polygon fill="none" stroke="black" stroke-dasharray="1,5" points="8,-70 8,-195 1141,-195 1141,-70 8,-70"/>
</g>
<g id="clust7" class="cluster">
<title>cluster_ProductsModule_imports</title>
<polygon fill="none" stroke="black" points="723,-78 723,-130 1133,-130 1133,-78 723,-78"/>
</g>
<g id="clust2" class="cluster">
<title>cluster_ProductsModule_declarations</title>
<polygon fill="none" stroke="black" points="16,-78 16,-130 715,-130 715,-78 16,-78"/>
</g>
<!-- CategoryProductComponent -->
<g id="node1" class="node">
<title>CategoryProductComponent</title>
<polygon fill="#ffffb3" stroke="black" points="707.2,-122 530.8,-122 530.8,-86 707.2,-86 707.2,-122"/>
<text text-anchor="middle" x="619" y="-99.8" font-family="Times,serif" font-size="14.00">CategoryProductComponent</text>
</g>
<!-- ProductsModule -->
<g id="node5" class="node">
<title>ProductsModule</title>
<polygon fill="#8dd3c7" stroke="black" points="673.04,-187 670.04,-191 649.04,-191 646.04,-187 564.96,-187 564.96,-151 673.04,-151 673.04,-187"/>
<text text-anchor="middle" x="619" y="-164.8" font-family="Times,serif" font-size="14.00">ProductsModule</text>
</g>
<!-- CategoryProductComponent&#45;&gt;ProductsModule -->
<g id="edge1" class="edge">
<title>CategoryProductComponent&#45;&gt;ProductsModule</title>
<path fill="none" stroke="black" d="M619,-122.11C619,-122.11 619,-140.99 619,-140.99"/>
<polygon fill="black" stroke="black" points="615.5,-140.99 619,-150.99 622.5,-140.99 615.5,-140.99"/>
</g>
<!-- ProductAddEditComponent -->
<g id="node2" class="node">
<title>ProductAddEditComponent</title>
<polygon fill="#ffffb3" stroke="black" points="513.32,-122 340.68,-122 340.68,-86 513.32,-86 513.32,-122"/>
<text text-anchor="middle" x="427" y="-99.8" font-family="Times,serif" font-size="14.00">ProductAddEditComponent</text>
</g>
<!-- ProductAddEditComponent&#45;&gt;ProductsModule -->
<g id="edge2" class="edge">
<title>ProductAddEditComponent&#45;&gt;ProductsModule</title>
<path fill="none" stroke="black" d="M427,-122.03C427,-138.4 427,-160 427,-160 427,-160 554.75,-160 554.75,-160"/>
<polygon fill="black" stroke="black" points="554.75,-163.5 564.75,-160 554.75,-156.5 554.75,-163.5"/>
</g>
<!-- ProductComponent -->
<g id="node3" class="node">
<title>ProductComponent</title>
<polygon fill="#ffffb3" stroke="black" points="322.38,-122 197.62,-122 197.62,-86 322.38,-86 322.38,-122"/>
<text text-anchor="middle" x="260" y="-99.8" font-family="Times,serif" font-size="14.00">ProductComponent</text>
</g>
<!-- ProductComponent&#45;&gt;ProductsModule -->
<g id="edge3" class="edge">
<title>ProductComponent&#45;&gt;ProductsModule</title>
<path fill="none" stroke="black" d="M260,-122.11C260,-141.34 260,-169 260,-169 260,-169 554.87,-169 554.87,-169"/>
<polygon fill="black" stroke="black" points="554.87,-172.5 564.87,-169 554.87,-165.5 554.87,-172.5"/>
</g>
<!-- ViewProductComponent -->
<g id="node4" class="node">
<title>ViewProductComponent</title>
<polygon fill="#ffffb3" stroke="black" points="179.7,-122 24.3,-122 24.3,-86 179.7,-86 179.7,-122"/>
<text text-anchor="middle" x="102" y="-99.8" font-family="Times,serif" font-size="14.00">ViewProductComponent</text>
</g>
<!-- ViewProductComponent&#45;&gt;ProductsModule -->
<g id="edge4" class="edge">
<title>ViewProductComponent&#45;&gt;ProductsModule</title>
<path fill="none" stroke="black" d="M102,-122.29C102,-144.21 102,-178 102,-178 102,-178 554.65,-178 554.65,-178"/>
<polygon fill="black" stroke="black" points="554.65,-181.5 564.65,-178 554.65,-174.5 554.65,-181.5"/>
</g>
<!-- MaterialModule -->
<g id="node6" class="node">
<title>MaterialModule</title>
<polygon fill="#8dd3c7" stroke="black" points="1125.47,-122 1122.47,-126 1101.47,-126 1098.47,-122 1018.53,-122 1018.53,-86 1125.47,-86 1125.47,-122"/>
<text text-anchor="middle" x="1072" y="-99.8" font-family="Times,serif" font-size="14.00">MaterialModule</text>
</g>
<!-- MaterialModule&#45;&gt;ProductsModule -->
<g id="edge5" class="edge">
<title>MaterialModule&#45;&gt;ProductsModule</title>
<path fill="none" stroke="black" d="M1072,-122.29C1072,-144.21 1072,-178 1072,-178 1072,-178 683.19,-178 683.19,-178"/>
<polygon fill="black" stroke="black" points="683.19,-174.5 673.19,-178 683.19,-181.5 683.19,-174.5"/>
</g>
<!-- ProductsRoutingModule -->
<g id="node7" class="node">
<title>ProductsRoutingModule</title>
<polygon fill="#8dd3c7" stroke="black" points="1000.66,-122 997.66,-126 976.66,-126 973.66,-122 847.34,-122 847.34,-86 1000.66,-86 1000.66,-122"/>
<text text-anchor="middle" x="924" y="-99.8" font-family="Times,serif" font-size="14.00">ProductsRoutingModule</text>
</g>
<!-- ProductsRoutingModule&#45;&gt;ProductsModule -->
<g id="edge6" class="edge">
<title>ProductsRoutingModule&#45;&gt;ProductsModule</title>
<path fill="none" stroke="black" d="M924,-122.11C924,-141.34 924,-169 924,-169 924,-169 683.18,-169 683.18,-169"/>
<polygon fill="black" stroke="black" points="683.18,-165.5 673.18,-169 683.18,-172.5 683.18,-165.5"/>
</g>
<!-- SharedModule -->
<g id="node8" class="node">
<title>SharedModule</title>
<polygon fill="#8dd3c7" stroke="black" points="829.42,-122 826.42,-126 805.42,-126 802.42,-122 730.58,-122 730.58,-86 829.42,-86 829.42,-122"/>
<text text-anchor="middle" x="780" y="-99.8" font-family="Times,serif" font-size="14.00">SharedModule</text>
</g>
<!-- SharedModule&#45;&gt;ProductsModule -->
<g id="edge7" class="edge">
<title>SharedModule&#45;&gt;ProductsModule</title>
<path fill="none" stroke="black" d="M780,-122.03C780,-138.4 780,-160 780,-160 780,-160 683.06,-160 683.06,-160"/>
<polygon fill="black" stroke="black" points="683.06,-156.5 673.06,-160 683.06,-163.5 683.06,-156.5"/>
</g>
</g>
</svg>
