<?xml version="1.0" encoding="UTF-8" standalone="no"?>
<!DOCTYPE svg PUBLIC "-//W3C//DTD SVG 1.1//EN"
 "http://www.w3.org/Graphics/SVG/1.1/DTD/svg11.dtd">
<!-- Generated by graphviz version 2.47.0 (20210316.0004)
 -->
<!-- Title: dependencies Pages: 1 -->
<svg width="2995pt" height="290pt"
 viewBox="0.00 0.00 2995.00 290.00" xmlns="http://www.w3.org/2000/svg" xmlns:xlink="http://www.w3.org/1999/xlink">
<g id="graph0" class="graph" transform="scale(1 1) rotate(0) translate(4 286)">
<title>dependencies</title>
<polygon fill="white" stroke="transparent" points="-4,4 -4,-286 2991,-286 2991,4 -4,4"/>
<text text-anchor="start" x="1472.51" y="-42.4" font-family="Times-12" font-weight="bold" font-size="14.00">Legend</text>
<polygon fill="#ffffb3" stroke="transparent" points="1259.5,-10 1259.5,-30 1279.5,-30 1279.5,-10 1259.5,-10"/>
<text text-anchor="start" x="1283.13" y="-15.4" font-family="Times-12" font-size="14.00"> &#160;Declarations</text>
<polygon fill="#8dd3c7" stroke="transparent" points="1372.5,-10 1372.5,-30 1392.5,-30 1392.5,-10 1372.5,-10"/>
<text text-anchor="start" x="1396.23" y="-15.4" font-family="Times-12" font-size="14.00"> &#160;Module</text>
<polygon fill="#80b1d3" stroke="transparent" points="1458.5,-10 1458.5,-30 1478.5,-30 1478.5,-10 1458.5,-10"/>
<text text-anchor="start" x="1482.28" y="-15.4" font-family="Times-12" font-size="14.00"> &#160;Bootstrap</text>
<polygon fill="#fdb462" stroke="transparent" points="1555.5,-10 1555.5,-30 1575.5,-30 1575.5,-10 1555.5,-10"/>
<text text-anchor="start" x="1579.17" y="-15.4" font-family="Times-12" font-size="14.00"> &#160;Providers</text>
<polygon fill="#fb8072" stroke="transparent" points="1651.5,-10 1651.5,-30 1671.5,-30 1671.5,-10 1651.5,-10"/>
<text text-anchor="start" x="1675.23" y="-15.4" font-family="Times-12" font-size="14.00"> &#160;Exports</text>
<g id="clust1" class="cluster">
<title>cluster_AppModule</title>
<polygon fill="none" stroke="black" stroke-dasharray="1,5" points="8,-70 8,-274 680,-274 680,-70 8,-70"/>
</g>
<g id="clust2" class="cluster">
<title>cluster_AppModule_declarations</title>
<polygon fill="none" stroke="black" points="16,-78 16,-130 403,-130 403,-78 16,-78"/>
</g>
<g id="clust6" class="cluster">
<title>cluster_AppModule_imports</title>
<polygon fill="none" stroke="black" points="411,-78 411,-130 672,-130 672,-78 411,-78"/>
</g>
<g id="clust8" class="cluster">
<title>cluster_AppModule_bootstrap</title>
<polygon fill="none" stroke="black" points="280,-214 280,-266 404,-266 404,-214 280,-214"/>
</g>
<g id="clust16" class="cluster">
<title>cluster_AuthModule</title>
<polygon fill="none" stroke="black" stroke-dasharray="1,5" points="688,-146 688,-198 792,-198 792,-146 688,-146"/>
</g>
<g id="clust28" class="cluster">
<title>cluster_ContactUsModule</title>
<polygon fill="none" stroke="black" stroke-dasharray="1,5" points="1758,-70 1758,-198 1954,-198 1954,-70 1758,-70"/>
</g>
<g id="clust30" class="cluster">
<title>cluster_ContactUsModule_imports</title>
<polygon fill="none" stroke="black" points="1766,-78 1766,-130 1946,-130 1946,-78 1766,-78"/>
</g>
<g id="clust46" class="cluster">
<title>cluster_ProductsModule</title>
<polygon fill="none" stroke="black" stroke-dasharray="1,5" points="1962,-70 1962,-198 2979,-198 2979,-70 1962,-70"/>
</g>
<g id="clust47" class="cluster">
<title>cluster_ProductsModule_declarations</title>
<polygon fill="none" stroke="black" points="2272,-78 2272,-130 2971,-130 2971,-78 2272,-78"/>
</g>
<g id="clust52" class="cluster">
<title>cluster_ProductsModule_imports</title>
<polygon fill="none" stroke="black" points="1970,-78 1970,-130 2264,-130 2264,-78 1970,-78"/>
</g>
<g id="clust62" class="cluster">
<title>cluster_SharedModule</title>
<polygon fill="none" stroke="black" stroke-dasharray="1,5" points="800,-138 800,-206 1750,-206 1750,-138 800,-138"/>
</g>
<g id="clust63" class="cluster">
<title>cluster_SharedModule_declarations</title>
<polygon fill="none" stroke="black" points="1284,-146 1284,-198 1742,-198 1742,-146 1284,-146"/>
</g>
<g id="clust68" class="cluster">
<title>cluster_SharedModule_exports</title>
<polygon fill="none" stroke="black" points="808,-146 808,-198 1276,-198 1276,-146 808,-146"/>
</g>
<!-- AppComponent -->
<g id="node1" class="node">
<title>AppComponent</title>
<polygon fill="#ffffb3" stroke="black" points="394.94,-122 289.06,-122 289.06,-86 394.94,-86 394.94,-122"/>
<text text-anchor="middle" x="342" y="-99.8" font-family="Times,serif" font-size="14.00">AppComponent</text>
</g>
<!-- AppModule -->
<g id="node4" class="node">
<title>AppModule</title>
<polygon fill="#8dd3c7" stroke="black" points="383.66,-190 380.66,-194 359.66,-194 356.66,-190 300.34,-190 300.34,-154 383.66,-154 383.66,-190"/>
<text text-anchor="middle" x="342" y="-167.8" font-family="Times,serif" font-size="14.00">AppModule</text>
</g>
<!-- AppComponent&#45;&gt;AppModule -->
<g id="edge1" class="edge">
<title>AppComponent&#45;&gt;AppModule</title>
<path fill="none" stroke="black" d="M342,-122.22C342,-122.22 342,-143.73 342,-143.73"/>
<polygon fill="black" stroke="black" points="338.5,-143.73 342,-153.73 345.5,-143.73 338.5,-143.73"/>
</g>
<!-- HomeComponent -->
<g id="node2" class="node">
<title>HomeComponent</title>
<polygon fill="#ffffb3" stroke="black" points="271.55,-122 156.45,-122 156.45,-86 271.55,-86 271.55,-122"/>
<text text-anchor="middle" x="214" y="-99.8" font-family="Times,serif" font-size="14.00">HomeComponent</text>
</g>
<!-- HomeComponent&#45;&gt;AppModule -->
<g id="edge2" class="edge">
<title>HomeComponent&#45;&gt;AppModule</title>
<path fill="none" stroke="black" d="M214,-122.27C214,-140.56 214,-166 214,-166 214,-166 290.09,-166 290.09,-166"/>
<polygon fill="black" stroke="black" points="290.09,-169.5 300.09,-166 290.09,-162.5 290.09,-169.5"/>
</g>
<!-- LoginComponent -->
<g id="node3" class="node">
<title>LoginComponent</title>
<polygon fill="#ffffb3" stroke="black" points="138.28,-122 23.72,-122 23.72,-86 138.28,-86 138.28,-122"/>
<text text-anchor="middle" x="81" y="-99.8" font-family="Times,serif" font-size="14.00">LoginComponent</text>
</g>
<!-- LoginComponent&#45;&gt;AppModule -->
<g id="edge3" class="edge">
<title>LoginComponent&#45;&gt;AppModule</title>
<path fill="none" stroke="black" d="M81,-122.29C81,-144.21 81,-178 81,-178 81,-178 290.07,-178 290.07,-178"/>
<polygon fill="black" stroke="black" points="290.07,-181.5 300.07,-178 290.07,-174.5 290.07,-181.5"/>
</g>
<!-- AppComponent  -->
<g id="node7" class="node">
<title>AppComponent </title>
<polygon fill="#80b1d3" stroke="black" points="396.44,-258 287.56,-258 287.56,-222 396.44,-222 396.44,-258"/>
<text text-anchor="middle" x="342" y="-235.8" font-family="Times,serif" font-size="14.00">AppComponent </text>
</g>
<!-- AppModule&#45;&gt;AppComponent  -->
<g id="edge6" class="edge">
<title>AppModule&#45;&gt;AppComponent </title>
<path fill="none" stroke="black" stroke-dasharray="1,5" d="M342,-190.22C342,-190.22 342,-211.73 342,-211.73"/>
<polygon fill="black" stroke="black" points="338.5,-211.73 342,-221.73 345.5,-211.73 338.5,-211.73"/>
</g>
<!-- AppRoutingModule -->
<g id="node5" class="node">
<title>AppRoutingModule</title>
<polygon fill="#8dd3c7" stroke="black" points="547.27,-122 544.27,-126 523.27,-126 520.27,-122 418.73,-122 418.73,-86 547.27,-86 547.27,-122"/>
<text text-anchor="middle" x="483" y="-99.8" font-family="Times,serif" font-size="14.00">AppRoutingModule</text>
</g>
<!-- AppRoutingModule&#45;&gt;AppModule -->
<g id="edge4" class="edge">
<title>AppRoutingModule&#45;&gt;AppModule</title>
<path fill="none" stroke="black" d="M483,-122.27C483,-140.56 483,-166 483,-166 483,-166 393.92,-166 393.92,-166"/>
<polygon fill="black" stroke="black" points="393.92,-162.5 383.92,-166 393.92,-169.5 393.92,-162.5"/>
</g>
<!-- SharedModule -->
<g id="node6" class="node">
<title>SharedModule</title>
<polygon fill="#8dd3c7" stroke="black" points="664.42,-122 661.42,-126 640.42,-126 637.42,-122 565.58,-122 565.58,-86 664.42,-86 664.42,-122"/>
<text text-anchor="middle" x="615" y="-99.8" font-family="Times,serif" font-size="14.00">SharedModule</text>
</g>
<!-- SharedModule&#45;&gt;AppModule -->
<g id="edge5" class="edge">
<title>SharedModule&#45;&gt;AppModule</title>
<path fill="none" stroke="black" d="M631.4,-122.29C631.4,-144.21 631.4,-178 631.4,-178 631.4,-178 393.77,-178 393.77,-178"/>
<polygon fill="black" stroke="black" points="393.77,-174.5 383.77,-178 393.77,-181.5 393.77,-174.5"/>
</g>
<!-- AuthModule -->
<g id="node8" class="node">
<title>AuthModule</title>
<polygon fill="#8dd3c7" stroke="black" points="783.55,-190 780.55,-194 759.55,-194 756.55,-190 696.45,-190 696.45,-154 783.55,-154 783.55,-190"/>
<text text-anchor="middle" x="740" y="-167.8" font-family="Times,serif" font-size="14.00">AuthModule</text>
</g>
<!-- SharedModule&#45;&gt;AuthModule -->
<g id="edge7" class="edge">
<title>SharedModule&#45;&gt;AuthModule</title>
<path fill="none" stroke="black" d="M664.4,-118C699.34,-118 740,-118 740,-118 740,-118 740,-143.72 740,-143.72"/>
<polygon fill="black" stroke="black" points="736.5,-143.72 740,-153.72 743.5,-143.72 736.5,-143.72"/>
</g>
<!-- ContactUsModule -->
<g id="node10" class="node">
<title>ContactUsModule</title>
<polygon fill="#8dd3c7" stroke="black" points="1899.15,-190 1896.15,-194 1875.15,-194 1872.15,-190 1780.85,-190 1780.85,-154 1899.15,-154 1899.15,-190"/>
<text text-anchor="middle" x="1840" y="-167.8" font-family="Times,serif" font-size="14.00">ContactUsModule</text>
</g>
<!-- SharedModule&#45;&gt;ContactUsModule -->
<g id="edge9" class="edge">
<title>SharedModule&#45;&gt;ContactUsModule</title>
<path fill="none" stroke="black" d="M664.31,-90C882.92,-90 1753.99,-90 1753.99,-90 1753.99,-90 1753.99,-172 1753.99,-172 1753.99,-172 1770.74,-172 1770.74,-172"/>
<polygon fill="black" stroke="black" points="1770.74,-175.5 1780.74,-172 1770.74,-168.5 1770.74,-175.5"/>
</g>
<!-- ProductsModule -->
<g id="node15" class="node">
<title>ProductsModule</title>
<polygon fill="#8dd3c7" stroke="black" points="2412.04,-190 2409.04,-194 2388.04,-194 2385.04,-190 2303.96,-190 2303.96,-154 2412.04,-154 2412.04,-190"/>
<text text-anchor="middle" x="2358" y="-167.8" font-family="Times,serif" font-size="14.00">ProductsModule</text>
</g>
<!-- SharedModule&#45;&gt;ProductsModule -->
<g id="edge16" class="edge">
<title>SharedModule&#45;&gt;ProductsModule</title>
<path fill="none" stroke="black" d="M598.6,-122.19C598.6,-130.28 598.6,-138 598.6,-138 598.6,-138 2339.91,-138 2339.91,-138 2339.91,-138 2339.91,-143.81 2339.91,-143.81"/>
<polygon fill="black" stroke="black" points="2336.41,-143.81 2339.91,-153.81 2343.41,-143.81 2336.41,-143.81"/>
</g>
<!-- FooterComponent  -->
<g id="node21" class="node">
<title>FooterComponent </title>
<polygon fill="#fb8072" stroke="black" points="937.88,-190 816.12,-190 816.12,-154 937.88,-154 937.88,-190"/>
<text text-anchor="middle" x="877" y="-167.8" font-family="Times,serif" font-size="14.00">FooterComponent </text>
</g>
<!-- SharedModule&#45;&gt;FooterComponent  -->
<g id="edge20" class="edge">
<title>SharedModule&#45;&gt;FooterComponent </title>
<path fill="none" stroke="black" stroke-dasharray="5,2" d="M664.28,-114C740.18,-114 877,-114 877,-114 877,-114 877,-143.97 877,-143.97"/>
<polygon fill="black" stroke="black" points="873.5,-143.97 877,-153.97 880.5,-143.97 873.5,-143.97"/>
</g>
<!-- HeaderComponent  -->
<g id="node22" class="node">
<title>HeaderComponent </title>
<polygon fill="#fb8072" stroke="black" points="1267.74,-190 1142.26,-190 1142.26,-154 1267.74,-154 1267.74,-190"/>
<text text-anchor="middle" x="1205" y="-167.8" font-family="Times,serif" font-size="14.00">HeaderComponent </text>
</g>
<!-- SharedModule&#45;&gt;HeaderComponent  -->
<g id="edge21" class="edge">
<title>SharedModule&#45;&gt;HeaderComponent </title>
<path fill="none" stroke="black" stroke-dasharray="5,2" d="M664.29,-106C806.09,-106 1205,-106 1205,-106 1205,-106 1205,-143.97 1205,-143.97"/>
<polygon fill="black" stroke="black" points="1201.5,-143.97 1205,-153.97 1208.5,-143.97 1201.5,-143.97"/>
</g>
<!-- NotAuthorizedComponent  -->
<g id="node23" class="node">
<title>NotAuthorizedComponent </title>
<polygon fill="#fb8072" stroke="black" points="1124.31,-190 955.69,-190 955.69,-154 1124.31,-154 1124.31,-190"/>
<text text-anchor="middle" x="1040" y="-167.8" font-family="Times,serif" font-size="14.00">NotAuthorizedComponent </text>
</g>
<!-- SharedModule&#45;&gt;NotAuthorizedComponent  -->
<g id="edge22" class="edge">
<title>SharedModule&#45;&gt;NotAuthorizedComponent </title>
<path fill="none" stroke="black" stroke-dasharray="5,2" d="M664.58,-110C776.7,-110 1040,-110 1040,-110 1040,-110 1040,-143.73 1040,-143.73"/>
<polygon fill="black" stroke="black" points="1036.5,-143.73 1040,-153.73 1043.5,-143.73 1036.5,-143.73"/>
</g>
<!-- ContactUsRoutingModule -->
<g id="node9" class="node">
<title>ContactUsRoutingModule</title>
<polygon fill="#8dd3c7" stroke="black" points="1937.77,-122 1934.77,-126 1913.77,-126 1910.77,-122 1774.23,-122 1774.23,-86 1937.77,-86 1937.77,-122"/>
<text text-anchor="middle" x="1856" y="-99.8" font-family="Times,serif" font-size="14.00">ContactUsRoutingModule</text>
</g>
<!-- ContactUsRoutingModule&#45;&gt;ContactUsModule -->
<g id="edge8" class="edge">
<title>ContactUsRoutingModule&#45;&gt;ContactUsModule</title>
<path fill="none" stroke="black" d="M1840,-122.22C1840,-122.22 1840,-143.73 1840,-143.73"/>
<polygon fill="black" stroke="black" points="1836.5,-143.73 1840,-153.73 1843.5,-143.73 1836.5,-143.73"/>
</g>
<!-- CategoryProductComponent -->
<g id="node11" class="node">
<title>CategoryProductComponent</title>
<polygon fill="#ffffb3" stroke="black" points="2963.2,-122 2786.8,-122 2786.8,-86 2963.2,-86 2963.2,-122"/>
<text text-anchor="middle" x="2875" y="-99.8" font-family="Times,serif" font-size="14.00">CategoryProductComponent</text>
</g>
<!-- CategoryProductComponent&#45;&gt;ProductsModule -->
<g id="edge10" class="edge">
<title>CategoryProductComponent&#45;&gt;ProductsModule</title>
<path fill="none" stroke="black" d="M2875,-122.25C2875,-145.02 2875,-181 2875,-181 2875,-181 2422.35,-181 2422.35,-181"/>
<polygon fill="black" stroke="black" points="2422.35,-177.5 2412.35,-181 2422.35,-184.5 2422.35,-177.5"/>
</g>
<!-- ProductAddEditComponent -->
<g id="node12" class="node">
<title>ProductAddEditComponent</title>
<polygon fill="#ffffb3" stroke="black" points="2769.32,-122 2596.68,-122 2596.68,-86 2769.32,-86 2769.32,-122"/>
<text text-anchor="middle" x="2683" y="-99.8" font-family="Times,serif" font-size="14.00">ProductAddEditComponent</text>
</g>
<!-- ProductAddEditComponent&#45;&gt;ProductsModule -->
<g id="edge11" class="edge">
<title>ProductAddEditComponent&#45;&gt;ProductsModule</title>
<path fill="none" stroke="black" d="M2683,-122.22C2683,-142.37 2683,-172 2683,-172 2683,-172 2422.4,-172 2422.4,-172"/>
<polygon fill="black" stroke="black" points="2422.4,-168.5 2412.4,-172 2422.4,-175.5 2422.4,-168.5"/>
</g>
<!-- ProductComponent -->
<g id="node13" class="node">
<title>ProductComponent</title>
<polygon fill="#ffffb3" stroke="black" points="2578.38,-122 2453.62,-122 2453.62,-86 2578.38,-86 2578.38,-122"/>
<text text-anchor="middle" x="2516" y="-99.8" font-family="Times,serif" font-size="14.00">ProductComponent</text>
</g>
<!-- ProductComponent&#45;&gt;ProductsModule -->
<g id="edge12" class="edge">
<title>ProductComponent&#45;&gt;ProductsModule</title>
<path fill="none" stroke="black" d="M2516,-122.02C2516,-139.37 2516,-163 2516,-163 2516,-163 2422.37,-163 2422.37,-163"/>
<polygon fill="black" stroke="black" points="2422.37,-159.5 2412.37,-163 2422.37,-166.5 2422.37,-159.5"/>
</g>
<!-- ViewProductComponent -->
<g id="node14" class="node">
<title>ViewProductComponent</title>
<polygon fill="#ffffb3" stroke="black" points="2435.7,-122 2280.3,-122 2280.3,-86 2435.7,-86 2435.7,-122"/>
<text text-anchor="middle" x="2358" y="-99.8" font-family="Times,serif" font-size="14.00">ViewProductComponent</text>
</g>
<!-- ViewProductComponent&#45;&gt;ProductsModule -->
<g id="edge13" class="edge">
<title>ViewProductComponent&#45;&gt;ProductsModule</title>
<path fill="none" stroke="black" d="M2376.09,-122.22C2376.09,-122.22 2376.09,-143.73 2376.09,-143.73"/>
<polygon fill="black" stroke="black" points="2372.59,-143.73 2376.09,-153.73 2379.59,-143.73 2372.59,-143.73"/>
</g>
<!-- MaterialModule -->
<g id="node16" class="node">
<title>MaterialModule</title>
<polygon fill="#8dd3c7" stroke="black" points="2256.47,-122 2253.47,-126 2232.47,-126 2229.47,-122 2149.53,-122 2149.53,-86 2256.47,-86 2256.47,-122"/>
<text text-anchor="middle" x="2203" y="-99.8" font-family="Times,serif" font-size="14.00">MaterialModule</text>
</g>
<!-- MaterialModule&#45;&gt;ProductsModule -->
<g id="edge14" class="edge">
<title>MaterialModule&#45;&gt;ProductsModule</title>
<path fill="none" stroke="black" d="M2203,-122.27C2203,-140.56 2203,-166 2203,-166 2203,-166 2293.79,-166 2293.79,-166"/>
<polygon fill="black" stroke="black" points="2293.79,-169.5 2303.79,-166 2293.79,-162.5 2293.79,-169.5"/>
</g>
<!-- ProductsRoutingModule -->
<g id="node17" class="node">
<title>ProductsRoutingModule</title>
<polygon fill="#8dd3c7" stroke="black" points="2131.66,-122 2128.66,-126 2107.66,-126 2104.66,-122 1978.34,-122 1978.34,-86 2131.66,-86 2131.66,-122"/>
<text text-anchor="middle" x="2055" y="-99.8" font-family="Times,serif" font-size="14.00">ProductsRoutingModule</text>
</g>
<!-- ProductsRoutingModule&#45;&gt;ProductsModule -->
<g id="edge15" class="edge">
<title>ProductsRoutingModule&#45;&gt;ProductsModule</title>
<path fill="none" stroke="black" d="M2055,-122.29C2055,-144.21 2055,-178 2055,-178 2055,-178 2293.83,-178 2293.83,-178"/>
<polygon fill="black" stroke="black" points="2293.83,-181.5 2303.83,-178 2293.83,-174.5 2293.83,-181.5"/>
</g>
<!-- FooterComponent -->
<g id="node18" class="node">
<title>FooterComponent</title>
<polygon fill="#ffffb3" stroke="black" points="1409.88,-190 1292.12,-190 1292.12,-154 1409.88,-154 1409.88,-190"/>
<text text-anchor="middle" x="1351" y="-167.8" font-family="Times,serif" font-size="14.00">FooterComponent</text>
</g>
<!-- FooterComponent&#45;&gt;SharedModule -->
<g id="edge17" class="edge">
<title>FooterComponent&#45;&gt;SharedModule</title>
<path fill="none" stroke="black" d="M1351,-153.97C1351,-133.23 1351,-102 1351,-102 1351,-102 674.43,-102 674.43,-102"/>
<polygon fill="black" stroke="black" points="674.43,-98.5 664.43,-102 674.43,-105.5 674.43,-98.5"/>
</g>
<!-- HeaderComponent -->
<g id="node19" class="node">
<title>HeaderComponent</title>
<polygon fill="#ffffb3" stroke="black" points="1733.74,-190 1612.26,-190 1612.26,-154 1733.74,-154 1733.74,-190"/>
<text text-anchor="middle" x="1673" y="-167.8" font-family="Times,serif" font-size="14.00">HeaderComponent</text>
</g>
<!-- HeaderComponent&#45;&gt;SharedModule -->
<g id="edge18" class="edge">
<title>HeaderComponent&#45;&gt;SharedModule</title>
<path fill="none" stroke="black" d="M1673,-153.91C1673,-130.87 1673,-94 1673,-94 1673,-94 674.26,-94 674.26,-94"/>
<polygon fill="black" stroke="black" points="674.26,-90.5 664.26,-94 674.26,-97.5 674.26,-90.5"/>
</g>
<!-- NotAuthorizedComponent -->
<g id="node20" class="node">
<title>NotAuthorizedComponent</title>
<polygon fill="#ffffb3" stroke="black" points="1593.81,-190 1428.19,-190 1428.19,-154 1593.81,-154 1593.81,-190"/>
<text text-anchor="middle" x="1511" y="-167.8" font-family="Times,serif" font-size="14.00">NotAuthorizedComponent</text>
</g>
<!-- NotAuthorizedComponent&#45;&gt;SharedModule -->
<g id="edge19" class="edge">
<title>NotAuthorizedComponent&#45;&gt;SharedModule</title>
<path fill="none" stroke="black" d="M1511,-153.71C1511,-131.79 1511,-98 1511,-98 1511,-98 674.45,-98 674.45,-98"/>
<polygon fill="black" stroke="black" points="674.45,-94.5 664.45,-98 674.45,-101.5 674.45,-94.5"/>
</g>
</g>
</svg>
